<svg id="Layer_1" data-name="Layer 1" xmlns="http://www.w3.org/2000/svg" viewBox="0 0 512 512"><title>video-film-glyph</title><path d="M490.67,21.33H21.33A21.33,21.33,0,0,0,0,42.67V469.33a21.33,21.33,0,0,0,21.33,21.33H490.67A21.33,21.33,0,0,0,512,469.33V42.67A21.33,21.33,0,0,0,490.67,21.33ZM192,106.67h42.67v42.67H192ZM149.33,405.33H106.67V362.67h42.67Zm0-256H106.67V106.67h42.67Zm85.33,256H192V362.67h42.67Zm85.33,0H277.33V362.67H320Zm-6.57-139.79L209.21,312.28c-7.91,3.55-17.21-1.61-17.21-9.54V209.26c0-7.93,9.3-13.09,17.21-9.54l104.22,46.74C322.19,250.39,322.19,261.61,313.43,265.54ZM320,149.33H277.33V106.67H320Zm85.33,256H362.67V362.67h42.67Zm0-256H362.67V106.67h42.67Z"/></svg>